<svg xmlns="http://www.w3.org/2000/svg" viewBox="0 0 840 400" height="400" width="840"><g transform="translate(0 -217)"><path d="m 700 417 l 0.3 -120 l 35.8 -0.3 l 35.9 -0.2 v 121 v 121 h -36 h -36 l 0.2 -120 z m -146 123 c -36.6 -2.1 -71 -15.9 -94 -37.9 -18 -17.2 -28.6 -36 -33.9 -61 c -2 -9.4 -2.2 -35.4 -0.5 -45 1.8 -9.6 7.2 -26.3 10.9 -33.5 15 -29.8 44 -52.9 78.9 -62.7 7.9 -2.2 10.9 -2.8 21.4 -4.6 15.7 -2.6 44.7 -2.6 61.9 0 27.4 4.1 50.9 12.5 65.8 23.4 l 4.1 2.9 l -4.6 7.2 c -12.9 20.7 -18.9 30.4 -22 35.7 -1.9 3.2 -3.7 5.8 -4 5.8 -0.3 0 -3.1 -1.6 -6.3 -3.6 c -17.2 -10.7 -35.5 -16.6 -54.9 -17.7 c -33.6 -1.8 -62 11.9 -74 35.5 -5.9 11.5 -7 16.8 -7 32.7 0 12.7 0.3 15.4 2.1 21 8.6 25.6 28 40.8 59 45.9 26.4 4.4 57 -2.8 79 -18.8 2.5 -1.8 4.8 -3.2 5.3 -3.2 1 0 29 47 29 48.9 0 0.8 -2.8 3 -6.3 5 -20.4 12 -40.9 19 -64.9 22.4 -10 1.4 -35 2.4 -45.5 1.9 z m -302 -0.4 c -51 -3.5 -85 -25.7 -98 -65 -7 -20.9 -7.7 -30.6 -7.3 -111 l 0.3 -67 h 36 h 36 l 0.5 76 c 0.3 49.8 0.9 78 1.6 80 3.1 10.6 10.3 20.6 18.9 26 16.9 10.7 42 10.7 59 0 5.5 -3.6 12.4 -11 15 -16.3 5.1 -10 4.9 -6.4 5.5 -89 l 0.5 -76.9 h 36 h 36 v 75 c 0 78 0 78.9 -4.3 96 -9.3 36.4 -34 60 -73 69 -16.7 3.8 -42 5.5 -63 4 z"/><g><g color="#000"><path d="m -1.9 298 l 109 0.1 v 47 h -109 z" fill="#1e76bd"/><path d="m -1.9 345 h 109 l 0.4 47 h -109 z" fill="#c7203c"/><path d="m -1.9 392 h 109 l 0.3 48 h -109 z"/><path d="m -1.9 440 h 109 c 1.8 16.2 3.3 32.6 8.3 48 h -117 z" fill="#f8df00"/><path d="m -1.9 488 h 117 c 5.6 18.3 16.3 33 28 47 h -145 z" fill="#35b24a"/></g><path d="m 144 535 h -145 v -237 c 36 0 72 0.1 109 0.1 -0.1 19.4 -0.6 38.9 0 58 l 0.5 83 c 0 0.7 0 1.5 0.1 2.2 4.8 49.9 12.8 64 36 93 z" fill="none" stroke="#000" stroke-width="0.1"/></g></g></svg>